<svg width="40" height="40" viewBox="0 0 40 40" fill="none" xmlns="http://www.w3.org/2000/svg">
  <path d="M34.5455 0H5.45455C2.44208 0 0 2.44208 0 5.45455V34.5455C0 37.5579 2.44208 40 5.45455 40H34.5455C37.5579 40 40 37.5579 40 34.5455V5.45455C40 2.44208 37.5579 0 34.5455 0Z" fill="#f57c00"/>
  <path fill="#fff" d="M20,9.5c-2.76,0-5,2.24-5,5s2.24,5,5,5s5-2.24,5-5S22.76,9.5,20,9.5z M20,17c-1.38,0-2.5-1.12-2.5-2.5S18.62,12,20,12s2.5,1.12,2.5,2.5S21.38,17,20,17z"/>
  <path fill="#fff" d="M24.58,21.92c-0.67,0.67-1.5,1.08-2.42,1.42l2.33,2.33c0.5,0.5,0.5,1.25,0,1.75c-0.25,0.25-0.58,0.33-0.92,0.33s-0.67-0.08-0.92-0.33L20,24.75l-2.67,2.67c-0.5,0.5-1.25,0.5-1.75,0c-0.5-0.5-0.5-1.25,0-1.75l2.33-2.33c-0.92-0.33-1.75-0.75-2.42-1.42c-0.5-0.5-0.5-1.25,0-1.75c0.5-0.5,1.25-0.5,1.75,0c1.17,1.17,3.42,1.17,4.67,0c0.5-0.5,1.25-0.5,1.75,0C25.08,20.67,25.08,21.42,24.58,21.92z"/>
</svg>
