<svg width="40" height="40" viewBox="0 0 40 40" fill="none" xmlns="http://www.w3.org/2000/svg">
  <path d="M34.5455 0H5.45455C2.44208 0 0 2.44208 0 5.45455V34.5455C0 37.5579 2.44208 40 5.45455 40H34.5455C37.5579 40 40 37.5579 40 34.5455V5.45455C40 2.44208 37.5579 0 34.5455 0Z" fill="#29b6f6"/>
  <path fill="#fff" d="M28.29,11.25l-3.12,15.94c0,0-0.13,0.73-1.04,0.73c-0.48,0-0.73-0.23-0.73-0.23l-6.76-5.61l-3.31-1.67l-4.25-1.13c0,0-0.76-0.22-0.76-0.84c0-0.52,0.78-0.77,0.78-0.77l17.76-7.06c0,0,0.54-0.2,0.94-0.2c0.25,0,0.52,0.1,0.52,0.42c0,0.21-0.04,0.42-0.04,0.42z"/>
  <path fill="#b0bec5" d="M19.17,25.42l-2.86,2.81c0,0-0.12,0.1-0.29,0.1c-0.06,0-0.12-0.01-0.18-0.04l0.8-4.97l2.53,2.1z"/>
  <path fill="#cfd8dc" d="M24.91,14.33c-0.14-0.18-0.4-0.22-0.58-0.08l-11.16,6.58c0,0,1.76,4.91,2.02,5.76c0.27,0.85,0.48,0.87,0.48,0.87l0.8-4.97l8.19-7.58c0.18-0.14,0.22-0.4,0.25-0.58z"/>
</svg>
