<svg width="40" height="40" viewBox="0 0 40 40" fill="none" xmlns="http://www.w3.org/2000/svg">
  <path d="M34.5455 0H5.45455C2.44208 0 0 2.44208 0 5.45455V34.5455C0 37.5579 2.44208 40 5.45455 40H34.5455C37.5579 40 40 37.5579 40 34.5455V5.45455C40 2.44208 37.5579 0 34.5455 0Z" fill="#4c75a3"/>
  <path fill="#fff" d="M30.2,14.5c0.17-0.58-0.08-1-0.83-1h-2.75c-0.67,0-1,0.33-1.17,0.75c0,0-1.42,3.33-3.33,5.5c-0.67,0.67-0.92,0.83-1.25,0.83c-0.17,0-0.42-0.17-0.42-0.75v-5.33c0-0.67-0.17-1-0.75-1h-4.33c-0.42,0-0.67,0.33-0.67,0.58c0,0.67,1,0.83,1.08,2.67v4c0,0.83-0.17,1.08-0.5,1.08c-0.92,0-3.17-3.33-4.5-7.17c-0.25-0.75-0.5-1-1.25-1H7c-0.75,0-0.92,0.33-0.92,0.75c0,0.67,0.92,4.17,4.42,8.75c2.33,3.08,5.58,4.75,8.58,4.75c1.75,0,2-0.42,2-1.08v-2.42c0-0.75,0.17-0.92,0.67-0.92c0.42,0,1.08,0.17,2.67,1.67c1.83,1.83,2.08,2.67,3.17,2.67h2.75c0.75,0,1.08-0.42,0.92-1.17c-0.25-0.75-1.08-1.75-2.17-3c-0.58-0.75-1.5-1.5-1.75-1.92c-0.42-0.5-0.25-0.75,0-1.17C27.35,21.5,30.05,16.58,30.2,14.5z"/>
</svg>
