<svg xmlns="http://www.w3.org/2000/svg" viewBox="0 0 48 48" width="48" height="48">
  <path fill="#1976D2" d="M24 4C12.954 4 4 12.954 4 24s8.954 20 20 20 20-8.954 20-20S35.046 4 24 4z"/>
  <path fill="#fff" d="M35.2 29.6c-.9-.9-2.5-2.8-3.6-3.7-.8-.7-1.1-1.1-.3-2 .4-.4 1.7-1.8 2.6-3 1.2-1.5 2.2-3.1 2.4-3.6.4-.9 0-1.4-.8-1.4h-2.9c-.7 0-1.1.3-1.4.8 0 0-1.6 2.7-3.3 4.4-.7.7-1 .9-1.4.6-.4-.3-.3-.9-.3-1.4v-3c0-1-.2-1.4-1-1.4h-4.5c-.5 0-.9.3-.9.7 0 .7.9.9 1 2.8v3.2c0 .9-.2 1.1-.5 1.1-.9 0-3.1-2.8-4.3-5.5-.4-.9-.7-1.2-1.4-1.2h-2.9c-.8 0-1 .3-.8.9.2.5 2.4 6.1 5.6 9.6 2.3 2.6 4.9 4 7.5 4h1.8c.7 0 1-.4 1-1v-1.6c0-.7.3-1 .7-.9.4.1 1.5.7 2.9 2.1 1 1 1.2 1.4 2.1 1.4h2.9c.8 0 1.2-.3.9-1.1-.2-.7-1.3-2.2-2.1-3.2z"/>
</svg>
